PathFileType	4	(X/Y/Z)	/Users/itak/Documents/Research/Walk-IL/dataset/trc/00111_00007.trc
DataRate	CameraRate	NumFrames	NumMarkers	Units	OrigDataRate	OrigDataStartFrame	OrigNumFrames
100.000000	100.000000	4	53	mm	100.000000	414	552
Frame#	Time	RPSI			LPSI			L3			STRN			T10			C7			CLAV			RBAK			LBAK			LSHO			LUPA			LAEL			LAOL			LWTS			LWPS			LFRA			LIFD			LHPS			LHTS			RSHO			RUPA			RAEL			RAOL			RWTS			RWPS			RFRA			RIFD			RHTS			RHPS			RBHD			LFHD			RFHD			LBHD			LHIP			RHIP			RASI			LASI			LKNE			LTHI			LANK			LTIP			LTOE			LMT1			LMT5			LHEE			RKNE			RTHI			RANK			RTIP			RTOE			RMT1			RMT5			RHEE			
		X1	Y1	Z1	X2	Y2	Z2	X3	Y3	Z3	X4	Y4	Z4	X5	Y5	Z5	X6	Y6	Z6	X7	Y7	Z7	X8	Y8	Z8	X9	Y9	Z9	X10	Y10	Z10	X11	Y11	Z11	X12	Y12	Z12	X13	Y13	Z13	X14	Y14	Z14	X15	Y15	Z15	X16	Y16	Z16	X17	Y17	Z17	X18	Y18	Z18	X19	Y19	Z19	X20	Y20	Z20	X21	Y21	Z21	X22	Y22	Z22	X23	Y23	Z23	X24	Y24	Z24	X25	Y25	Z25	X26	Y26	Z26	X27	Y27	Z27	X28	Y28	Z28	X29	Y29	Z29	X30	Y30	Z30	X31	Y31	Z31	X32	Y32	Z32	X33	Y33	Z33	X34	Y34	Z34	X35	Y35	Z35	X36	Y36	Z36	X37	Y37	Z37	X38	Y38	Z38	X39	Y39	Z39	X40	Y40	Z40	X41	Y41	Z41	X42	Y42	Z42	X43	Y43	Z43	X44	Y44	Z44	X45	Y45	Z45	X46	Y46	Z46	X47	Y47	Z47	X48	Y48	Z48	X49	Y49	Z49	X50	Y50	Z50	X51	Y51	Z51	X52	Y52	Z52	X53	Y53	Z53	

415	4.14	-1160.851196289062	1106.203491210938	-230.4933013916016	-1162.576049804688	1117.169189453125	-365.5509948730469	-1164.712890625	1153.357666015625	-296.9858093261719	-913.9232788085938	1324.34716796875	-300.2059326171875	-1169.772338867188	1306.951538085938	-286.1679077148438	-1097.064453125	1593.022094726562	-307.0085754394531	-931.16162109375	1463.068359375	-306.3418884277344	-1168.9072265625	1418.274291992188	-211.5767059326172	-1113.810668945312	1574.204956054688	-407.6485900878906	-1033.971557617188	1548.769775390625	-479.3396911621094	-1072.999877929688	1421.691162109375	-548.1715698242188	-1084.96826171875	1205.444702148438	-578.5202026367188	-1149.7255859375	1197.60302734375	-519.7443237304688	-1002.28125	942.1052856445312	-544.0408935546875	-1085.45166015625	921.7317504882812	-568.8428955078125	-1077.489624023438	1088.73291015625	-586.0364379882812	-993.302490234375	747.0677490234375	-541.5296630859375	-1059.89892578125	845.7208862304688	-574.44091796875	-991.2708740234375	853.9458618164062	-560.0729370117188	-1035.025756835938	1571.391235351562	-129.8245697021484	-1054.16650390625	1500.628173828125	-63.36695861816406	-1071.755126953125	1204.915283203125	-31.57942199707031	-1088.641845703125	1200.8447265625	-126.8262252807617	-905.76953125	979.0074462890625	-53.88549423217773	-974.6458740234375	953.26953125	-15.95586204528809	-1041.9365234375	1132.882202148438	-17.08397102355957	-857.6561279296875	789.1206665039062	-69.32539367675781	-862.2554321289062	875.5087280273438	-48.82180786132812	-926.7139282226562	859.681640625	-12.13823127746582	-1043.396240234375	1755.591430664062	-236.2703094482422	-887.9130859375	1810.08203125	-382.6120300292969	-878.6764526367188	1819.530883789062	-253.2534790039062	-1060.193725585938	1749.968627929688	-370.4798278808594	-1071.0390625	1033.060791015625	-480.905517578125	-1045.340209960938	993.4627075195312	-116.9422988891602	-954.8570556640625	1062.197021484375	-164.7064819335938	-963.5341796875	1082.331176757812	-427.5993041992188	-890.5980834960938	558.0242309570312	-452.4345092773438	-963.9423828125	685.4335327148438	-483.7348327636719	-851.6254272460938	39.52275848388672	-457.4784545898438	-910.4813842773438	292.1690368652344	-485.3079833984375	-637.1714477539062	96.81552124023438	-385.8296508789062	-716.4364013671875	82.27195739746094	-356.2503356933594	-727.8675537109375	61.86268997192383	-469.8939514160156	-923.589111328125	26.88324356079102	-400.0682983398438	-1098.530639648438	503.3467102050781	-177.3705902099609	-1043.157836914062	779.474853515625	-137.6920318603516	-1330.454711914062	34.58988571166992	-203.082763671875	-1157.968017578125	375.8750305175781	-168.2057647705078	-1097.21240234375	43.84899520874023	-250.5393829345703	-1156.527587890625	31.17684555053711	-292.29638671875	-1194.954956054688	41.57291412353516	-178.5124359130859	-1388.395141601562	42.27326965332031	-253.6368408203125	
416	4.15	-1168.44970703125	1106.920043945312	-229.2845611572266	-1170.1201171875	1117.79345703125	-364.3250122070312	-1172.1630859375	1154.21728515625	-295.8588256835938	-920.9217529296875	1324.782348632812	-298.5641784667969	-1176.79638671875	1307.88818359375	-285.2128295898438	-1103.332275390625	1593.757934570312	-305.625244140625	-937.7216186523438	1463.589721679688	-304.6163940429688	-1175.814331054688	1419.151733398438	-210.5065002441406	-1119.863159179688	1575.029418945312	-406.3531188964844	-1039.885009765625	1549.39208984375	-477.8623046875	-1079.069458007812	1422.3564453125	-546.6452026367188	-1091.7373046875	1206.111083984375	-576.823486328125	-1156.567993164062	1198.544067382812	-518.1095581054688	-1010.046081542969	942.5023193359375	-541.9577026367188	-1093.25439453125	922.3887939453125	-566.8544311523438	-1084.66650390625	1089.367309570312	-584.208251953125	-1001.665161132812	747.3809814453125	-539.318115234375	-1067.989990234375	846.2683715820312	-572.2714233398438	-999.3582153320312	854.2783813476562	-557.8392944335938	-1041.81494140625	1571.89794921875	-128.2970886230469	-1061.199829101562	1501.100830078125	-61.93927764892578	-1078.977783203125	1205.391235351562	-30.11922836303711	-1095.923583984375	1201.394775390625	-125.3728637695312	-913.4600219726562	979.1624145507812	-52.65336608886719	-982.35546875	953.5801391601562	-14.67456531524658	-1049.293579101562	1133.306274414062	-15.66777896881104	-865.7947998046875	789.1698608398438	-68.23876953125	-870.1244506835938	875.5636596679688	-47.67800903320312	-934.5657958984375	859.8893432617188	-10.91969680786133	-1049.196899414062	1756.256225585938	-234.5539703369141	-893.6897583007812	1810.299194335938	-381.0697021484375	-884.3330078125	1819.812133789062	-251.7364959716797	-1066.114624023438	1750.577392578125	-368.7679138183594	-1078.697509765625	1033.468872070312	-479.5780029296875	-1052.9482421875	994.3976440429688	-115.5156631469727	-962.3969116210938	1062.906494140625	-163.2569580078125	-971.1151123046875	1082.8134765625	-426.2162475585938	-898.7635498046875	558.4292602539062	-452.299072265625	-972.20703125	685.8125	-483.3464050292969	-855.2826538085938	40.5726432800293	-457.4561767578125	-917.3634033203125	292.5843505859375	-485.0431823730469	-641.0234985351562	102.2238311767578	-389.0128173828125	-719.6377563476562	86.06099700927734	-358.2900695800781	-732.1689453125	65.49432373046875	-471.7566223144531	-926.0635375976562	26.28414154052734	-398.9962463378906	-1103.467407226562	504.1428527832031	-176.3089904785156	-1049.779052734375	780.578125	-136.1734313964844	-1330.824096679688	33.40950393676758	-202.7021789550781	-1161.386352539062	375.9857788085938	-167.5090789794922	-1097.598510742188	44.02687835693359	-250.5572357177734	-1156.800170898438	31.14826011657715	-292.2663269042969	-1195.342529296875	41.49794006347656	-178.4904632568359	-1388.831909179688	40.46773147583008	-253.3187561035156	
417	4.16	-1175.783813476562	1107.82958984375	-228.1705017089844	-1177.505981445312	1118.543823242188	-363.2035217285156	-1179.441284179688	1155.19775390625	-294.8538513183594	-927.77294921875	1325.409057617188	-297.0735168457031	-1183.707763671875	1308.98193359375	-284.4493713378906	-1109.492797851562	1594.6552734375	-304.3533630371094	-944.1532592773438	1464.296508789062	-302.9841918945312	-1182.622680664062	1420.171264648438	-209.6037445068359	-1125.787109375	1576.0302734375	-405.1707153320312	-1045.650756835938	1550.190795898438	-476.4822387695312	-1084.955932617188	1423.179931640625	-545.217041015625	-1098.272094726562	1206.928100585938	-575.2036743164062	-1163.214599609375	1199.646484375	-516.5840454101562	-1017.71337890625	943.0062866210938	-539.920654296875	-1100.9609375	923.2005615234375	-564.9440307617188	-1091.654663085938	1090.151000976562	-582.451416015625	-1010.203369140625	747.7977294921875	-536.9117431640625	-1076.060668945312	846.943603515625	-570.13037109375	-1007.42236328125	854.6778564453125	-555.6029663085938	-1048.547607421875	1572.523315429688	-126.8625717163086	-1068.202392578125	1501.680908203125	-60.63405227661133	-1086.21875	1205.999267578125	-28.75832748413086	-1103.182373046875	1202.074096679688	-124.0234069824219	-921.301025390625	979.3355712890625	-51.44247817993164	-990.251953125	953.9655151367188	-13.40764617919922	-1056.71630859375	1133.849487304688	-14.32748126983643	-874.2257690429688	789.2020263671875	-67.11194610595703	-878.23974609375	875.6083374023438	-46.51081848144531	-942.6387939453125	860.1432495117188	-9.682893753051758	-1054.908569335938	1757.091674804688	-232.888671875	-899.385498046875	1810.708374023438	-379.5702514648438	-889.9307861328125	1820.283813476562	-250.2590026855469	-1071.955078125	1751.359375	-367.1207580566406	-1086.229858398438	1033.95068359375	-478.3397216796875	-1060.24169921875	995.5756225585938	-114.1824798583984	-969.65478515625	1063.845703125	-161.9752807617188	-978.5572509765625	1083.40869140625	-424.9964904785156	-906.6224975585938	558.9241943359375	-452.1331787109375	-980.260498046875	686.2914428710938	-482.9851684570312	-859.809814453125	41.64659881591797	-457.4309997558594	-924.402587890625	293.10302734375	-484.7276306152344	-645.48193359375	106.718994140625	-392.5520324707031	-723.3826904296875	89.29902648925781	-360.5658569335938	-737.30517578125	68.63726043701172	-473.8044738769531	-929.3536987304688	26.06711006164551	-397.8403015136719	-1107.939331054688	505.128173828125	-175.2280731201172	-1056.065795898438	781.9436645507812	-134.6681518554688	-1331.094116210938	32.5365104675293	-202.2972106933594	-1164.461547851562	376.345458984375	-166.7615509033203	-1097.928588867188	44.23213195800781	-250.5059814453125	-1157.030151367188	31.21812629699707	-292.1794128417969	-1195.661987304688	41.43928909301758	-178.4283142089844	-1389.174926757812	39.13430404663086	-252.9469451904297	
418	4.17	-1182.843017578125	1108.917724609375	-227.1244659423828	-1184.740478515625	1119.418701171875	-362.1612854003906	-1186.551513671875	1156.292358398438	-293.9351196289062	-934.4710083007812	1326.231567382812	-295.757080078125	-1190.537719726562	1310.244262695312	-283.86962890625	-1115.542846679688	1595.718139648438	-303.1948852539062	-950.4561157226562	1465.190307617188	-301.4679565429688	-1189.334350585938	1421.340576171875	-208.8605041503906	-1131.589111328125	1577.216918945312	-404.0995788574219	-1051.286743164062	1551.18603515625	-475.2100219726562	-1090.674072265625	1424.183471679688	-543.9043579101562	-1104.558227539062	1207.909301757812	-573.6589965820312	-1169.653198242188	1200.925415039062	-515.167724609375	-1025.279296875	943.6303100585938	-537.9242553710938	-1108.56640625	924.1849365234375	-563.1109008789062	-1098.439086914062	1091.098754882812	-580.7620239257812	-1018.903076171875	748.33837890625	-534.3574829101562	-1084.105102539062	847.7703857421875	-568.0319213867188	-1015.455139160156	855.16357421875	-553.370849609375	-1055.206420898438	1573.266723632812	-125.5309295654297	-1075.15576171875	1502.371826171875	-59.46172714233398	-1093.473388671875	1206.746826171875	-27.5042781829834	-1110.409301757812	1202.88427734375	-122.7838973999023	-929.27587890625	979.537353515625	-50.25513458251953	-998.3204956054688	954.4324951171875	-12.15402793884277	-1064.195434570312	1134.51904296875	-13.06763362884521	-882.9324951171875	789.2249145507812	-65.93596649169922	-886.5923461914062	875.6514282226562	-45.31998062133789	-950.9293823242188	860.4503173828125	-8.42518424987793	-1060.538208007812	1758.100463867188	-231.2882843017578	-904.9938354492188	1811.315551757812	-378.1121520996094	-895.46826171875	1820.9404296875	-248.8167419433594	-1077.709838867188	1752.327880859375	-365.5464782714844	-1093.643798828125	1034.532958984375	-477.1863708496094	-1067.202026367188	996.964111328125	-112.9550628662109	-976.6221923828125	1065.0078125	-160.8845977783203	-985.8666381835938	1084.136474609375	-423.9561462402344	-914.0736694335938	559.5564575195312	-451.9552612304688	-988.0442504882812	686.9151611328125	-482.6566467285156	-865.3341674804688	42.73221206665039	-457.412841796875	-931.591552734375	293.7622985839844	-484.3749694824219	-650.6499633789062	110.1561508178711	-396.3547668457031	-727.8019409179688	91.88802337646484	-363.0181274414062	-743.3878784179688	71.18595123291016	-475.9887084960938	-933.634521484375	26.27386474609375	-396.6422424316406	-1112.004760742188	506.2690124511719	-174.1448822021484	-1062.051147460938	783.4929809570312	-133.1659240722656	-1331.277221679688	31.91055107116699	-201.9002380371094	-1167.263916015625	376.93017578125	-165.9666595458984	-1098.206665039062	44.47664642333984	-250.3790435791016	-1157.22412109375	31.37540054321289	-292.0356750488281	-1195.910888671875	41.39478302001953	-178.3218231201172	-1389.428344726562	38.19852066040039	-252.5527954101562	
